<?xml version="1.0" encoding="UTF-8"?>
<svg xmlns="http://www.w3.org/2000/svg" viewBox="0 0 900 2800" font-family="Helvetica, Arial, sans-serif">
  <defs>
    <marker id="arrow" viewBox="0 0 10 10" refX="10" refY="5" markerWidth="6" markerHeight="6" orient="auto">
      <path d="M 0 0 L 10 5 L 0 10 z" fill="#666"/>
    </marker>
    <filter id="shadow" x="-5%" y="-5%" width="110%" height="110%">
      <feDropShadow dx="1" dy="1" stdDeviation="2" flood-opacity="0.15"/>
    </filter>
    <linearGradient id="headerGrad" x1="0%" y1="0%" x2="100%" y2="0%">
      <stop offset="0%" style="stop-color:#1976D2"/>
      <stop offset="100%" style="stop-color:#42A5F5"/>
    </linearGradient>
  </defs>

  <!-- Background -->
  <rect width="900" height="2800" fill="#FAFAFA"/>

  <!-- Title -->
  <rect x="50" y="20" width="800" height="60" rx="8" fill="url(#headerGrad)" filter="url(#shadow)"/>
  <text x="450" y="55" text-anchor="middle" fill="white" font-size="18" font-weight="bold">Process Flow: Llama 8B Accuracy Improvement (82% → 90%)</text>

  <!-- START -->
  <ellipse cx="450" cy="120" rx="200" ry="35" fill="#F8BBD0" stroke="#E91E63" stroke-width="2" filter="url(#shadow)"/>
  <text x="450" y="115" text-anchor="middle" font-size="11" font-weight="bold">Baseline: roachie-8b at 82%</text>
  <text x="450" y="130" text-anchor="middle" font-size="10">Reference: Gemini at 95-100%</text>
  <line x1="450" y1="155" x2="450" y2="175" stroke="#666" stroke-width="2" marker-end="url(#arrow)"/>

  <!-- Step 1: Root Cause Analysis -->
  <rect x="80" y="180" width="740" height="130" rx="8" fill="#FFF3E0" stroke="#FF9800" stroke-width="2" filter="url(#shadow)"/>
  <text x="450" y="200" text-anchor="middle" font-size="13" font-weight="bold" fill="#E65100">Step 1: Root Cause Analysis</text>
  <rect x="100" y="210" width="220" height="30" rx="4" fill="#FFE0B2" stroke="#FB8C00"/>
  <text x="210" y="230" text-anchor="middle" font-size="10">Compact prompt (fewer templates)</text>
  <rect x="340" y="210" width="220" height="30" rx="4" fill="#FFE0B2" stroke="#FB8C00"/>
  <text x="450" y="230" text-anchor="middle" font-size="10">Enrichment capped at 3 tools</text>
  <rect x="580" y="210" width="220" height="30" rx="4" fill="#FFE0B2" stroke="#FB8C00"/>
  <text x="690" y="230" text-anchor="middle" font-size="10">Simplified conn reminder</text>
  <rect x="100" y="255" width="220" height="30" rx="4" fill="#FFE0B2" stroke="#FB8C00"/>
  <text x="210" y="275" text-anchor="middle" font-size="10">SYSTEM conflicts w/ runtime</text>
  <rect x="340" y="255" width="220" height="30" rx="4" fill="#FFE0B2" stroke="#FB8C00"/>
  <text x="450" y="275" text-anchor="middle" font-size="10">num_predict=256 (too low)</text>
  <rect x="580" y="255" width="220" height="30" rx="4" fill="#FFE0B2" stroke="#FB8C00"/>
  <text x="690" y="275" text-anchor="middle" font-size="10">temperature=0.1 (conservative)</text>
  <line x1="450" y1="310" x2="450" y2="330" stroke="#666" stroke-width="2" marker-end="url(#arrow)"/>

  <!-- Step 2: Fix #1 -->
  <rect x="120" y="335" width="660" height="90" rx="8" fill="#E3F2FD" stroke="#1976D2" stroke-width="2" filter="url(#shadow)"/>
  <text x="450" y="355" text-anchor="middle" font-size="12" font-weight="bold" fill="#1565C0">Step 2: Fix #1 — Unified Prompt Path</text>
  <rect x="140" y="365" width="260" height="45" rx="4" fill="#FFCDD2" stroke="#D32F2F"/>
  <text x="270" y="383" text-anchor="middle" font-size="10" font-weight="bold">BEFORE</text>
  <text x="270" y="400" text-anchor="middle" font-size="9">if ollama → compact, else → full</text>
  <text x="450" y="393" text-anchor="middle" font-size="16" fill="#1976D2">→</text>
  <rect x="500" y="365" width="260" height="45" rx="4" fill="#C8E6C9" stroke="#388E3C"/>
  <text x="630" y="383" text-anchor="middle" font-size="10" font-weight="bold">AFTER</text>
  <text x="630" y="400" text-anchor="middle" font-size="9">All providers → full prompt (7 templates)</text>
  <line x1="450" y1="425" x2="450" y2="445" stroke="#666" stroke-width="2" marker-end="url(#arrow)"/>

  <!-- Step 3: Fix #2 -->
  <rect x="120" y="450" width="660" height="90" rx="8" fill="#E3F2FD" stroke="#1976D2" stroke-width="2" filter="url(#shadow)"/>
  <text x="450" y="470" text-anchor="middle" font-size="12" font-weight="bold" fill="#1565C0">Step 3: Fix #2 — Remove Enrichment Cap</text>
  <rect x="140" y="480" width="260" height="45" rx="4" fill="#FFCDD2" stroke="#D32F2F"/>
  <text x="270" y="498" text-anchor="middle" font-size="10" font-weight="bold">BEFORE</text>
  <text x="270" y="515" text-anchor="middle" font-size="9">ollama → 3 tools + hardcoded reminder</text>
  <text x="450" y="508" text-anchor="middle" font-size="16" fill="#1976D2">→</text>
  <rect x="500" y="480" width="260" height="45" rx="4" fill="#C8E6C9" stroke="#388E3C"/>
  <text x="630" y="498" text-anchor="middle" font-size="10" font-weight="bold">AFTER</text>
  <text x="630" y="515" text-anchor="middle" font-size="9">All providers → 7 tools + standard reminder</text>
  <line x1="450" y1="540" x2="450" y2="560" stroke="#666" stroke-width="2" marker-end="url(#arrow)"/>

  <!-- Step 4: Fix #3 & #4 -->
  <rect x="120" y="565" width="660" height="90" rx="8" fill="#E3F2FD" stroke="#1976D2" stroke-width="2" filter="url(#shadow)"/>
  <text x="450" y="585" text-anchor="middle" font-size="12" font-weight="bold" fill="#1565C0">Step 4: Fix #3 &amp; #4 — Modelfile Updates</text>
  <rect x="140" y="595" width="260" height="45" rx="4" fill="#FFCDD2" stroke="#D32F2F"/>
  <text x="270" y="613" text-anchor="middle" font-size="10" font-weight="bold">BEFORE</text>
  <text x="270" y="630" text-anchor="middle" font-size="9">SYSTEM embedded, temp 0.1, predict 256</text>
  <text x="450" y="623" text-anchor="middle" font-size="16" fill="#1976D2">→</text>
  <rect x="500" y="595" width="260" height="45" rx="4" fill="#C8E6C9" stroke="#388E3C"/>
  <text x="630" y="613" text-anchor="middle" font-size="10" font-weight="bold">AFTER</text>
  <text x="630" y="630" text-anchor="middle" font-size="9">No SYSTEM, temp 0.15, predict 512</text>
  <line x1="450" y1="655" x2="450" y2="675" stroke="#666" stroke-width="2" marker-end="url(#arrow)"/>

  <!-- Step 5: Verify -->
  <rect x="250" y="680" width="400" height="45" rx="8" fill="#FFF9C4" stroke="#F9A825" stroke-width="2" filter="url(#shadow)"/>
  <text x="450" y="700" text-anchor="middle" font-size="12" font-weight="bold" fill="#F57F17">Step 5: Verify Quick Fixes</text>
  <text x="450" y="716" text-anchor="middle" font-size="11">Result: ~87% (+5 points)</text>
  <line x1="450" y1="725" x2="450" y2="745" stroke="#666" stroke-width="2" marker-end="url(#arrow)"/>

  <!-- Step 6: Training Data -->
  <rect x="100" y="750" width="700" height="200" rx="8" fill="#F3E5F5" stroke="#7B1FA2" stroke-width="2" filter="url(#shadow)"/>
  <text x="450" y="770" text-anchor="middle" font-size="13" font-weight="bold" fill="#4A148C">Step 6: Prepare LoRA Training Data</text>
  <rect x="120" y="785" width="130" height="50" rx="4" fill="#E1BEE7" stroke="#8E24AA"/>
  <text x="185" y="805" text-anchor="middle" font-size="9" font-weight="bold">156 JSONL files</text>
  <text x="185" y="820" text-anchor="middle" font-size="9">3,105 records</text>
  <text x="265" y="812" font-size="12" fill="#7B1FA2">→</text>
  <rect x="280" y="785" width="110" height="50" rx="4" fill="#E1BEE7" stroke="#8E24AA"/>
  <text x="335" y="805" text-anchor="middle" font-size="9" font-weight="bold">Filter</text>
  <text x="335" y="820" text-anchor="middle" font-size="9">gemini+success</text>
  <text x="405" y="812" font-size="12" fill="#7B1FA2">→</text>
  <rect x="420" y="785" width="110" height="50" rx="4" fill="#E1BEE7" stroke="#8E24AA"/>
  <text x="475" y="805" text-anchor="middle" font-size="9" font-weight="bold">Deduplicate</text>
  <text x="475" y="820" text-anchor="middle" font-size="9">82 unique pairs</text>
  <text x="545" y="812" font-size="12" fill="#7B1FA2">→</text>
  <rect x="560" y="785" width="110" height="50" rx="4" fill="#E1BEE7" stroke="#8E24AA"/>
  <text x="615" y="805" text-anchor="middle" font-size="9" font-weight="bold">Clean</text>
  <text x="615" y="820" text-anchor="middle" font-size="9">Strip prefixes</text>

  <rect x="220" y="855" width="130" height="50" rx="4" fill="#E1BEE7" stroke="#8E24AA"/>
  <text x="285" y="875" text-anchor="middle" font-size="9" font-weight="bold">Chat-ML JSONL</text>
  <text x="285" y="890" text-anchor="middle" font-size="9">user → assistant</text>
  <text x="365" y="882" font-size="12" fill="#7B1FA2">→</text>
  <rect x="380" y="855" width="200" height="50" rx="4" fill="#CE93D8" stroke="#6A1B9A"/>
  <text x="480" y="875" text-anchor="middle" font-size="10" font-weight="bold" fill="white">Split (seed=42)</text>
  <text x="480" y="892" text-anchor="middle" font-size="10" fill="white">65 train / 8 valid / 9 test</text>

  <line x1="615" y1="835" x2="285" y2="855" stroke="#7B1FA2" stroke-width="1.5" marker-end="url(#arrow)"/>
  <line x1="450" y1="950" x2="450" y2="970" stroke="#666" stroke-width="2" marker-end="url(#arrow)"/>

  <!-- Step 7: Environment -->
  <rect x="250" y="975" width="400" height="45" rx="8" fill="#E8F4FD" stroke="#2196F3" stroke-width="2" filter="url(#shadow)"/>
  <text x="450" y="995" text-anchor="middle" font-size="11" font-weight="bold">Step 7: Setup Environment</text>
  <text x="450" y="1012" text-anchor="middle" font-size="10">python3 -m venv .venv &amp;&amp; pip install mlx-lm</text>
  <!-- Error note -->
  <rect x="680" y="975" width="160" height="40" rx="4" fill="#FFECB3" stroke="#FF8F00" stroke-dasharray="4"/>
  <text x="760" y="992" text-anchor="middle" font-size="9" fill="#E65100">Error: PEP 668</text>
  <text x="760" y="1005" text-anchor="middle" font-size="9" fill="#E65100">Fix: created venv</text>
  <line x1="650" y1="997" x2="680" y2="995" stroke="#FF8F00" stroke-width="1" stroke-dasharray="4"/>
  <line x1="450" y1="1020" x2="450" y2="1045" stroke="#666" stroke-width="2" marker-end="url(#arrow)"/>

  <!-- Step 8: Training -->
  <rect x="120" y="1050" width="660" height="160" rx="8" fill="#E8F5E9" stroke="#388E3C" stroke-width="2" filter="url(#shadow)"/>
  <text x="450" y="1075" text-anchor="middle" font-size="13" font-weight="bold" fill="#1B5E20">Step 8: LoRA Fine-Tuning (33 min)</text>
  <rect x="140" y="1090" width="200" height="60" rx="4" fill="#C8E6C9" stroke="#43A047"/>
  <text x="240" y="1110" text-anchor="middle" font-size="10" font-weight="bold">Configuration</text>
  <text x="240" y="1125" text-anchor="middle" font-size="9">rank=8, layers=16</text>
  <text x="240" y="1138" text-anchor="middle" font-size="9">lr=1e-5, batch=1, 1000 iters</text>
  <text x="355" y="1120" font-size="12" fill="#388E3C">→</text>
  <rect x="370" y="1090" width="180" height="60" rx="4" fill="#C8E6C9" stroke="#43A047"/>
  <text x="460" y="1110" text-anchor="middle" font-size="10" font-weight="bold">MLX Training</text>
  <text x="460" y="1125" text-anchor="middle" font-size="9">Apple Silicon native</text>
  <text x="460" y="1138" text-anchor="middle" font-size="9">Peak: 6.87 GB</text>
  <text x="565" y="1120" font-size="12" fill="#388E3C">→</text>
  <rect x="580" y="1090" width="180" height="60" rx="4" fill="#66BB6A" stroke="#2E7D32"/>
  <text x="670" y="1110" text-anchor="middle" font-size="10" font-weight="bold" fill="white">Best Checkpoint</text>
  <text x="670" y="1125" text-anchor="middle" font-size="10" fill="white">Iter 600</text>
  <text x="670" y="1138" text-anchor="middle" font-size="10" fill="white">val loss = 0.332</text>

  <!-- Loss curve mini chart -->
  <text x="170" y="1175" font-size="9" fill="#666">Loss: 3.3</text>
  <polyline points="200,1170 260,1173 320,1160 380,1165 440,1155 500,1175 560,1163 620,1160 680,1168 740,1150"
    fill="none" stroke="#F44336" stroke-width="1.5" stroke-dasharray="4"/>
  <polyline points="200,1178 260,1180 320,1190 380,1192 440,1193 500,1193 560,1194 620,1194 680,1194 740,1194"
    fill="none" stroke="#4CAF50" stroke-width="1.5"/>
  <text x="750" y="1153" font-size="8" fill="#F44336">val</text>
  <text x="750" y="1197" font-size="8" fill="#4CAF50">train</text>

  <line x1="450" y1="1210" x2="450" y2="1235" stroke="#666" stroke-width="2" marker-end="url(#arrow)"/>

  <!-- Steps 9-12: Conversion -->
  <rect x="100" y="1240" width="700" height="240" rx="8" fill="#FFF8E1" stroke="#FFA000" stroke-width="2" filter="url(#shadow)"/>
  <text x="450" y="1265" text-anchor="middle" font-size="13" font-weight="bold" fill="#E65100">Steps 9-12: Model Conversion Pipeline</text>

  <rect x="120" y="1280" width="145" height="65" rx="4" fill="#FFE082" stroke="#FFA000"/>
  <text x="192" y="1298" text-anchor="middle" font-size="10" font-weight="bold">Step 9: Fuse</text>
  <text x="192" y="1313" text-anchor="middle" font-size="9">Base + Adapters</text>
  <text x="192" y="1328" text-anchor="middle" font-size="9">→ Fused (4.2GB)</text>
  <text x="278" y="1315" font-size="12" fill="#FFA000">→</text>

  <rect x="293" y="1280" width="145" height="65" rx="4" fill="#FFE082" stroke="#FFA000"/>
  <text x="365" y="1298" text-anchor="middle" font-size="10" font-weight="bold">Step 10: Dequant</text>
  <text x="365" y="1313" text-anchor="middle" font-size="9">4-bit → bfloat16</text>
  <text x="365" y="1328" text-anchor="middle" font-size="9">(~15 GB)</text>
  <text x="451" y="1315" font-size="12" fill="#FFA000">→</text>

  <rect x="466" y="1280" width="145" height="65" rx="4" fill="#FFE082" stroke="#FFA000"/>
  <text x="538" y="1298" text-anchor="middle" font-size="10" font-weight="bold">Step 11: Template</text>
  <text x="538" y="1313" text-anchor="middle" font-size="9">Copy chat_template</text>
  <text x="538" y="1328" text-anchor="middle" font-size="9">from base model</text>
  <text x="624" y="1315" font-size="12" fill="#FFA000">→</text>

  <rect x="639" y="1280" width="145" height="65" rx="4" fill="#FFB74D" stroke="#EF6C00"/>
  <text x="711" y="1298" text-anchor="middle" font-size="10" font-weight="bold">Step 12: Import</text>
  <text x="711" y="1313" text-anchor="middle" font-size="9">ollama create</text>
  <text x="711" y="1328" text-anchor="middle" font-size="9">roachie-8b-ft</text>

  <!-- Error notes for conversion -->
  <rect x="250" y="1365" width="140" height="35" rx="4" fill="#FFECB3" stroke="#FF8F00" stroke-dasharray="4"/>
  <text x="320" y="1380" text-anchor="middle" font-size="8" fill="#E65100">Error: U32 dtype</text>
  <text x="320" y="1392" text-anchor="middle" font-size="8" fill="#E65100">Fix: dequantize to bf16</text>
  <line x1="365" y1="1345" x2="340" y2="1365" stroke="#FF8F00" stroke-width="1" stroke-dasharray="4"/>

  <rect x="400" y="1365" width="140" height="35" rx="4" fill="#FFECB3" stroke="#FF8F00" stroke-dasharray="4"/>
  <text x="470" y="1380" text-anchor="middle" font-size="8" fill="#E65100">Error: disk full</text>
  <text x="470" y="1392" text-anchor="middle" font-size="8" fill="#E65100">Fix: rm intermediates</text>
  <line x1="365" y1="1345" x2="450" y2="1365" stroke="#FF8F00" stroke-width="1" stroke-dasharray="4"/>

  <rect x="550" y="1365" width="140" height="35" rx="4" fill="#FFECB3" stroke="#FF8F00" stroke-dasharray="4"/>
  <text x="620" y="1380" text-anchor="middle" font-size="8" fill="#E65100">Error: empty response</text>
  <text x="620" y="1392" text-anchor="middle" font-size="8" fill="#E65100">Fix: copy chat_template</text>
  <line x1="538" y1="1345" x2="600" y2="1365" stroke="#FF8F00" stroke-width="1" stroke-dasharray="4"/>

  <!-- Deleted labels -->
  <text x="192" y="1455" text-anchor="middle" font-size="9" fill="#D32F2F">DELETED (4.2GB)</text>
  <text x="365" y="1455" text-anchor="middle" font-size="9" fill="#D32F2F">DELETED (15GB)</text>

  <line x1="450" y1="1480" x2="450" y2="1500" stroke="#666" stroke-width="2" marker-end="url(#arrow)"/>

  <!-- Step 13: Cleanup -->
  <rect x="250" y="1505" width="400" height="45" rx="8" fill="#E8F4FD" stroke="#2196F3" stroke-width="2" filter="url(#shadow)"/>
  <text x="450" y="1525" text-anchor="middle" font-size="11" font-weight="bold">Step 13: Cleanup</text>
  <text x="450" y="1542" text-anchor="middle" font-size="10">Delete intermediates (19.2GB), keep adapters (16.8MB)</text>
  <line x1="450" y1="1550" x2="450" y2="1575" stroke="#666" stroke-width="2" marker-end="url(#arrow)"/>

  <!-- Step 14: Validation -->
  <rect x="120" y="1580" width="660" height="140" rx="8" fill="#ECEFF1" stroke="#455A64" stroke-width="2" filter="url(#shadow)"/>
  <text x="450" y="1605" text-anchor="middle" font-size="13" font-weight="bold" fill="#263238">Step 14: Batch Test Validation</text>
  <text x="450" y="1625" text-anchor="middle" font-size="11">Run 73 prompts against roachie-8b-ft</text>

  <rect x="200" y="1640" width="180" height="55" rx="8" fill="#C8E6C9" stroke="#4CAF50" stroke-width="2"/>
  <text x="290" y="1663" text-anchor="middle" font-size="16" font-weight="bold" fill="#2E7D32">66/73</text>
  <text x="290" y="1683" text-anchor="middle" font-size="12" fill="#2E7D32">90.4%</text>

  <rect x="430" y="1640" width="330" height="65" rx="4" fill="#FFCDD2" stroke="#D32F2F"/>
  <text x="595" y="1658" text-anchor="middle" font-size="10" font-weight="bold" fill="#C62828">5 Remaining Failures</text>
  <text x="595" y="1672" text-anchor="middle" font-size="9">#8: Wrong tool (backup)</text>
  <text x="595" y="1684" text-anchor="middle" font-size="9">#57,#70: Missing positional arg</text>
  <text x="595" y="1696" text-anchor="middle" font-size="9">#61: Missing -d flag  |  #68: Truncated flags</text>

  <line x1="450" y1="1720" x2="450" y2="1745" stroke="#666" stroke-width="2" marker-end="url(#arrow)"/>

  <!-- DONE -->
  <ellipse cx="450" cy="1785" rx="200" ry="35" fill="#C8E6C9" stroke="#4CAF50" stroke-width="2" filter="url(#shadow)"/>
  <text x="450" y="1780" text-anchor="middle" font-size="14" font-weight="bold" fill="#1B5E20">DONE: 82% → 90%</text>
  <text x="450" y="1797" text-anchor="middle" font-size="11" fill="#2E7D32">+8 points improvement</text>

  <!-- Accuracy Progression Bar Chart -->
  <rect x="100" y="1860" width="700" height="260" rx="8" fill="white" stroke="#BDBDBD" stroke-width="1" filter="url(#shadow)"/>
  <text x="450" y="1888" text-anchor="middle" font-size="14" font-weight="bold">Accuracy Progression</text>

  <!-- Y-axis -->
  <line x1="180" y1="1900" x2="180" y2="2100" stroke="#999" stroke-width="1"/>
  <text x="170" y="1910" text-anchor="end" font-size="9" fill="#666">100%</text>
  <text x="170" y="1950" text-anchor="end" font-size="9" fill="#666">90%</text>
  <text x="170" y="1990" text-anchor="end" font-size="9" fill="#666">80%</text>
  <text x="170" y="2030" text-anchor="end" font-size="9" fill="#666">70%</text>
  <line x1="175" y1="1906" x2="180" y2="1906" stroke="#999"/>
  <line x1="175" y1="1946" x2="750" y2="1946" stroke="#EEE" stroke-dasharray="4"/>
  <line x1="175" y1="1986" x2="750" y2="1986" stroke="#EEE" stroke-dasharray="4"/>
  <line x1="175" y1="2026" x2="750" y2="2026" stroke="#EEE" stroke-dasharray="4"/>

  <!-- Bars -->
  <rect x="210" y="1994" width="80" height="106" rx="4" fill="#EF5350"/>
  <text x="250" y="2050" text-anchor="middle" font-size="14" font-weight="bold" fill="white">72%</text>
  <text x="250" y="2118" text-anchor="middle" font-size="9">Original</text>

  <rect x="330" y="1958" width="80" height="142" rx="4" fill="#FFA726"/>
  <text x="370" y="2035" text-anchor="middle" font-size="14" font-weight="bold" fill="white">83%</text>
  <text x="370" y="2118" text-anchor="middle" font-size="9">Fix #1</text>

  <rect x="450" y="1942" width="80" height="158" rx="4" fill="#42A5F5"/>
  <text x="490" y="2025" text-anchor="middle" font-size="14" font-weight="bold" fill="white">87%</text>
  <text x="490" y="2118" text-anchor="middle" font-size="9">Fix #2-#4</text>

  <rect x="570" y="1926" width="80" height="174" rx="4" fill="#66BB6A"/>
  <text x="610" y="2015" text-anchor="middle" font-size="14" font-weight="bold" fill="white">90%</text>
  <text x="610" y="2118" text-anchor="middle" font-size="9">LoRA</text>

  <rect x="690" y="1910" width="80" height="190" rx="4" fill="#AB47BC"/>
  <text x="730" y="2005" text-anchor="middle" font-size="14" font-weight="bold" fill="white">97%</text>
  <text x="730" y="2118" text-anchor="middle" font-size="9">Gemini</text>
</svg>
